<svg width="37" height="42" viewBox="0 0 37 42" fill="none" xmlns="http://www.w3.org/2000/svg">
<circle cx="19" cy="23.9231" r="16" stroke="url(#paint0_linear_103_6)" stroke-width="4"/>
<path d="M13.2773 37V35.8398H9.83984V25.2266H12.5898L19.1211 37.043L26.3398 37C26.3398 36.3698 26.1536 36.0117 25.7812 35.9258C25.6094 35.8971 25.4375 35.8828 25.2656 35.8828H24.3633L17.6172 24.7539C20.5391 23.9805 22.401 22.4336 23.2031 20.1133C23.4323 19.3971 23.5469 18.681 23.5469 17.9648C23.5469 15.8164 22.6016 14.0977 20.7109 12.8086C19.1354 11.7487 17.2161 11.2188 14.9531 11.2188H1.11719V12.3789H4.55469V35.8398H1.11719V37H13.2773ZM12.8047 12.3789C15.125 12.3789 16.6862 13.4531 17.4883 15.6016C17.7747 16.375 17.918 17.2057 17.918 18.0938C17.918 20.3854 17.1875 22.0612 15.7266 23.1211C14.9531 23.6654 14.0651 23.9375 13.0625 23.9375H9.83984V12.3789H12.8047Z" fill="#FFD600"/>
<path d="M13.2773 37V38H14.2773V37H13.2773ZM13.2773 35.8398H14.2773V34.8398H13.2773V35.8398ZM9.83984 35.8398H8.83984V36.8398H9.83984V35.8398ZM9.83984 25.2266V24.2266H8.83984V25.2266H9.83984ZM12.5898 25.2266L13.465 24.7428L13.1797 24.2266H12.5898V25.2266ZM19.1211 37.043L18.2459 37.5267L18.5332 38.0465L19.127 38.043L19.1211 37.043ZM26.3398 37L26.3458 38L27.3398 37.9941V37H26.3398ZM25.7812 35.9258L26.0061 34.9514L25.9761 34.9445L25.9456 34.9394L25.7812 35.9258ZM24.3633 35.8828L23.5081 36.4012L23.8001 36.8828H24.3633V35.8828ZM17.6172 24.7539L17.3613 23.7872L16.0691 24.1292L16.762 25.2723L17.6172 24.7539ZM23.2031 20.1133L24.1482 20.44L24.152 20.4291L24.1555 20.4181L23.2031 20.1133ZM20.7109 12.8086L21.2743 11.9824L21.2691 11.9789L20.7109 12.8086ZM1.11719 11.2188V10.2188H0.117188V11.2188H1.11719ZM1.11719 12.3789H0.117188V13.3789H1.11719V12.3789ZM4.55469 12.3789H5.55469V11.3789H4.55469V12.3789ZM4.55469 35.8398V36.8398H5.55469V35.8398H4.55469ZM1.11719 35.8398V34.8398H0.117188V35.8398H1.11719ZM1.11719 37H0.117188V38H1.11719V37ZM17.4883 15.6016L18.426 15.2542L18.4251 15.2518L17.4883 15.6016ZM15.7266 23.1211L16.3021 23.9389L16.308 23.9348L16.3138 23.9305L15.7266 23.1211ZM9.83984 23.9375H8.83984V24.9375H9.83984V23.9375ZM9.83984 12.3789V11.3789H8.83984V12.3789H9.83984ZM14.2773 37V35.8398H12.2773V37H14.2773ZM13.2773 34.8398H9.83984V36.8398H13.2773V34.8398ZM10.8398 35.8398V25.2266H8.83984V35.8398H10.8398ZM9.83984 26.2266H12.5898V24.2266H9.83984V26.2266ZM11.7146 25.7103L18.2459 37.5267L19.9963 36.5592L13.465 24.7428L11.7146 25.7103ZM19.127 38.043L26.3458 38L26.3339 36L19.1151 36.043L19.127 38.043ZM27.3398 37C27.3398 36.6058 27.2848 36.177 27.0874 35.7974C26.8679 35.3753 26.4953 35.0643 26.0061 34.9514L25.5564 36.9002C25.515 36.8906 25.4583 36.8677 25.4034 36.8241C25.3497 36.7814 25.3227 36.7389 25.313 36.7201C25.3048 36.7045 25.3128 36.7136 25.3222 36.7635C25.3315 36.813 25.3398 36.8897 25.3398 37H27.3398ZM25.9456 34.9394C25.7202 34.9018 25.4933 34.8828 25.2656 34.8828V36.8828C25.3817 36.8828 25.4986 36.8925 25.6169 36.9122L25.9456 34.9394ZM25.2656 34.8828H24.3633V36.8828H25.2656V34.8828ZM25.2184 35.3644L18.4723 24.2355L16.762 25.2723L23.5081 36.4012L25.2184 35.3644ZM17.8731 25.7206C21.0323 24.8844 23.2115 23.1497 24.1482 20.44L22.258 19.7866C21.5905 21.7174 20.0459 23.0766 17.3613 23.7872L17.8731 25.7206ZM24.1555 20.4181C24.4147 19.6083 24.5469 18.7895 24.5469 17.9648H22.5469C22.5469 18.5725 22.4499 19.1859 22.2507 19.8085L24.1555 20.4181ZM24.5469 17.9648C24.5469 15.461 23.417 13.4433 21.2743 11.9824L20.1476 13.6348C21.7861 14.752 22.5469 16.1718 22.5469 17.9648H24.5469ZM21.2691 11.9789C19.4991 10.7881 17.3762 10.2188 14.9531 10.2188V12.2188C17.0561 12.2188 18.7717 12.7093 20.1528 13.6383L21.2691 11.9789ZM14.9531 10.2188H1.11719V12.2188H14.9531V10.2188ZM0.117188 11.2188V12.3789H2.11719V11.2188H0.117188ZM1.11719 13.3789H4.55469V11.3789H1.11719V13.3789ZM3.55469 12.3789V35.8398H5.55469V12.3789H3.55469ZM4.55469 34.8398H1.11719V36.8398H4.55469V34.8398ZM0.117188 35.8398V37H2.11719V35.8398H0.117188ZM1.11719 38H13.2773V36H1.11719V38ZM12.8047 13.3789C13.8084 13.3789 14.5694 13.6096 15.149 14.0084C15.7277 14.4066 16.2068 15.0282 16.5514 15.9513L18.4251 15.2518C17.9677 14.0265 17.2652 13.0368 16.2827 12.3607C15.3011 11.6853 14.1213 11.3789 12.8047 11.3789V13.3789ZM16.5505 15.9489C16.7928 16.6029 16.918 17.3151 16.918 18.0938H18.918C18.918 17.0963 18.7567 16.1471 18.426 15.2542L16.5505 15.9489ZM16.918 18.0938C16.918 20.161 16.2721 21.4899 15.1393 22.3117L16.3138 23.9305C18.1029 22.6325 18.918 20.6099 18.918 18.0938H16.918ZM15.1511 22.3033C14.5565 22.7217 13.8722 22.9375 13.0625 22.9375V24.9375C14.258 24.9375 15.3497 24.6091 16.3021 23.9389L15.1511 22.3033ZM13.0625 22.9375H9.83984V24.9375H13.0625V22.9375ZM10.8398 23.9375V12.3789H8.83984V23.9375H10.8398ZM9.83984 13.3789H12.8047V11.3789H9.83984V13.3789Z" fill="url(#paint1_linear_103_6)"/>
<defs>
<linearGradient id="paint0_linear_103_6" x1="19" y1="5.92307" x2="19" y2="43.1346" gradientUnits="userSpaceOnUse">
<stop stop-color="#001AFF"/>
<stop offset="1" stop-color="#FF06C8"/>
</linearGradient>
<linearGradient id="paint1_linear_103_6" x1="10" y1="14" x2="17.8386" y2="34.8728" gradientUnits="userSpaceOnUse">
<stop stop-color="#FF0000"/>
<stop offset="1" stop-color="#2AFE98"/>
</linearGradient>
</defs>
</svg>
